<?xml version="1.0" standalone="no"?><!DOCTYPE svg PUBLIC "-//W3C//DTD SVG 1.1//EN" "http://www.w3.org/Graphics/SVG/1.1/DTD/svg11.dtd"><svg t="1771230428005" class="icon" viewBox="0 0 1024 1024" version="1.1" xmlns="http://www.w3.org/2000/svg" p-id="3253" xmlns:xlink="http://www.w3.org/1999/xlink" width="200" height="200"><path d="M868.2 261.8c-40.1-40.1-93.4-62.2-150-62.2-56.7 0-110 22.1-150 62.2l-82.9 82.9 24.7 24.7L760.6 620l24.7 24.7 82.9-82.9c40.1-40.1 62.1-93.3 62.1-150 0.1-56.7-22-110-62.1-150z" fill="#FF4C4D" p-id="3254"></path><path d="M509.9 919.9L155.8 565.7c-40.1-40.1-62.1-93.4-62.1-150s22.1-109.9 62.1-150c40.1-40.1 93.4-62.2 150-62.2 56.7 0 110 22.1 150 62.2L810 619.8 509.9 919.9zM305.8 273.5c-38 0-73.7 14.8-100.5 41.7-26.8 26.9-41.6 62.5-41.6 100.5s14.8 73.7 41.6 100.5L510 820.9l201-201.1-304.7-304.7c-26.8-26.8-62.5-41.6-100.5-41.6z" p-id="3255"></path><path d="M509.9 919.9L155.8 565.7c-40.1-40.1-62.1-93.4-62.1-150s22.1-109.9 62.1-150c40.1-40.1 93.4-62.2 150-62.2 56.7 0 110 22.1 150 62.2L810 619.8 509.9 919.9zM305.8 273.5c-38 0-73.7 14.8-100.5 41.7-26.8 26.9-41.6 62.5-41.6 100.5s14.8 73.7 41.6 100.5L510 820.9l201-201.1-304.7-304.7c-26.8-26.8-62.5-41.6-100.5-41.6z" p-id="3256"></path><path d="M509.9 919.9L155.8 565.7c-40.1-40.1-62.1-93.4-62.1-150s22.1-109.9 62.1-150c40.1-40.1 93.4-62.2 150-62.2 56.7 0 110 22.1 150 62.2L810 619.8 509.9 919.9zM305.8 273.5c-38 0-73.7 14.8-100.5 41.7-26.8 26.9-41.6 62.5-41.6 100.5s14.8 73.7 41.6 100.5L510 820.9l201-201.1-304.7-304.7c-26.8-26.8-62.5-41.6-100.5-41.6z" p-id="3257"></path><path d="M509.9 919.9L155.8 565.7c-40.1-40.1-62.1-93.4-62.1-150s22.1-109.9 62.1-150c40.1-40.1 93.4-62.2 150-62.2 56.7 0 110 22.1 150 62.2L810 619.8 509.9 919.9zM305.8 273.5c-38 0-73.7 14.8-100.5 41.7-26.8 26.9-41.6 62.5-41.6 100.5s14.8 73.7 41.6 100.5L510 820.9l201-201.1-304.7-304.7c-26.8-26.8-62.5-41.6-100.5-41.6z" p-id="3258"></path><path d="M509.9 919.9L155.8 565.7c-40.1-40.1-62.1-93.4-62.1-150s22.1-109.9 62.1-150c40.1-40.1 93.4-62.2 150-62.2 56.7 0 110 22.1 150 62.2L810 619.8 509.9 919.9zM305.8 273.5c-38 0-73.7 14.8-100.5 41.7-26.8 26.9-41.6 62.5-41.6 100.5s14.8 73.7 41.6 100.5L510 820.9l201-201.1-304.7-304.7c-26.8-26.8-62.5-41.6-100.5-41.6z" p-id="3259"></path><path d="M509.9 919.9L155.8 565.7c-40.1-40.1-62.1-93.4-62.1-150s22.1-109.9 62.1-150c40.1-40.1 93.4-62.2 150-62.2 56.7 0 110 22.1 150 62.2L810 619.8 509.9 919.9zM305.8 273.5c-38 0-73.7 14.8-100.5 41.7-26.8 26.9-41.6 62.5-41.6 100.5s14.8 73.7 41.6 100.5L510 820.9l201-201.1-304.7-304.7c-26.8-26.8-62.5-41.6-100.5-41.6z" p-id="3260"></path><path d="M509.9 919.9L155.8 565.7c-40.1-40.1-62.1-93.4-62.1-150s22.1-109.9 62.1-150c40.1-40.1 93.4-62.2 150-62.2 56.7 0 110 22.1 150 62.2L810 619.8 509.9 919.9zM305.8 273.5c-38 0-73.7 14.8-100.5 41.7-26.8 26.9-41.6 62.5-41.6 100.5s14.8 73.7 41.6 100.5L510 820.9l201-201.1-304.7-304.7c-26.8-26.8-62.5-41.6-100.5-41.6z" p-id="3261"></path></svg>